<svg
	xmlns="http://www.w3.org/2000/svg"
	xmlns:xlink="http://www.w3.org/1999/xlink" viewBox="0 0 19.15 19.15">
			<rect fill="currentColor" class="cls-1" x="1.57" y="1.57" width="16" height="16" rx="1" transform="translate(-2.15 16.34) rotate(-75)"/>
			<path fill-rule="evenodd" fill="#fff" class="cls-2" d="M13.8,6.82a1.62,1.62,0,0,0,2-1.14,1.72,1.72,0,0,0,.06-.54,1.63,1.63,0,0,1-1.34,2.91,1.63,1.63,0,0,1-1.2-1.45A1.45,1.45,0,0,0,13.8,6.82Z"/>
			<path class="cls-3" fill="#fff" d="M4.88,14.05l-.12.45L2.7,13.94l.12-.44Zm-1-4.2L2.81,14l-.55-.14L3.37,9.71ZM7.25,14.4l.63-2.35.52.14-.82,3.06-.5-.13Zm.27-.62.22.06a3,3,0,0,1-.22.55,1.39,1.39,0,0,1-.32.39,1,1,0,0,1-.45.2,1.54,1.54,0,0,1-.59-.05,1.39,1.39,0,0,1-.39-.17,1.06,1.06,0,0,1-.27-.29,1,1,0,0,1-.11-.41,1.82,1.82,0,0,1,.07-.54l.53-2,.52.14-.53,2a1.23,1.23,0,0,0,0,.36.61.61,0,0,0,.07.25.54.54,0,0,0,.15.15.72.72,0,0,0,.2.09,1,1,0,0,0,.56,0,.74.74,0,0,0,.38-.27A1.36,1.36,0,0,0,7.52,13.78Zm2-.58L8.9,15.61l-.52-.14L9.2,12.4l.5.14Zm-.33.73L9,13.86a2.21,2.21,0,0,1,.25-.56,1.82,1.82,0,0,1,.38-.4,1.26,1.26,0,0,1,.48-.2,1.2,1.2,0,0,1,.53,0,1.39,1.39,0,0,1,.39.17.7.7,0,0,1,.26.28.94.94,0,0,1,.11.39,2.15,2.15,0,0,1-.07.53l-.54,2L10.26,16l.54-2a1,1,0,0,0,0-.41.4.4,0,0,0-.15-.26.65.65,0,0,0-.31-.16.7.7,0,0,0-.38,0,.79.79,0,0,0-.34.15,1,1,0,0,0-.26.28A1.19,1.19,0,0,0,9.22,13.93Zm3.62,2.79a1.56,1.56,0,0,1-.55-.26,1.24,1.24,0,0,1-.36-.43,1.41,1.41,0,0,1-.16-.55,1.7,1.7,0,0,1,.06-.62l0-.12a1.93,1.93,0,0,1,.29-.63,1.55,1.55,0,0,1,.43-.42,1.49,1.49,0,0,1,.52-.19,1.15,1.15,0,0,1,.52,0,1.36,1.36,0,0,1,.54.26,1.15,1.15,0,0,1,.31.42,1.57,1.57,0,0,1,.09.54,1.9,1.9,0,0,1-.08.61l-.06.24L12.13,15l.11-.43L14,15v0a1.48,1.48,0,0,0,0-.42.7.7,0,0,0-.14-.37.64.64,0,0,0-.39-.24.7.7,0,0,0-.35,0,.67.67,0,0,0-.32.15,1.16,1.16,0,0,0-.26.31,1.78,1.78,0,0,0-.19.48l0,.11a1.65,1.65,0,0,0-.06.43,1.12,1.12,0,0,0,.09.38,1,1,0,0,0,.23.31,1,1,0,0,0,.36.18,1,1,0,0,0,.5,0,1.19,1.19,0,0,0,.42-.21l.25.34a1.72,1.72,0,0,1-.33.22,1.43,1.43,0,0,1-.43.12A1.82,1.82,0,0,1,12.84,16.72Z"/>
</svg>