<svg
	xmlns="http://www.w3.org/2000/svg" viewBox="0 0 18 18">
    <rect class="cls-4" fill="currentColor" x="1.65" y="1.65" width="14.7" height="14.7" transform="translate(-2.02 15.36) rotate(-75)"/>
    <path class="cls-5" fill="white" d="M9.44,13.56,9.06,15a3.22,3.22,0,0,0,.76.49,5.37,5.37,0,0,0,1,.35,4.46,4.46,0,0,0,1,.17,2.59,2.59,0,0,0,.9-.11,1.7,1.7,0,0,0,.71-.44,2,2,0,0,0,.45-.85,1.78,1.78,0,0,0,.06-.71,1.61,1.61,0,0,0-.19-.61,2.68,2.68,0,0,0-.42-.55,4.53,4.53,0,0,0-.6-.53l-.44-.36a2.43,2.43,0,0,1-.32-.33.83.83,0,0,1-.18-.31.47.47,0,0,1,0-.31.49.49,0,0,1,.15-.24.59.59,0,0,1,.27-.15,1.4,1.4,0,0,1,.37,0,2.57,2.57,0,0,1,.46.07l.37.13c.13.06.26.12.38.19a3.27,3.27,0,0,1,.36.25,2.76,2.76,0,0,1,.3.29l.35-1.34a3.46,3.46,0,0,0-.66-.38,5.21,5.21,0,0,0-.87-.29,3.57,3.57,0,0,0-1-.15,2.56,2.56,0,0,0-.89.12,1.76,1.76,0,0,0-.71.45,1.66,1.66,0,0,0-.43.81,1.73,1.73,0,0,0,.07,1.19,2.94,2.94,0,0,0,.92,1.06c.17.14.34.26.49.39a2.55,2.55,0,0,1,.37.36,1,1,0,0,1,.22.35.56.56,0,0,1,0,.36.42.42,0,0,1-.14.24.53.53,0,0,1-.25.15,1.13,1.13,0,0,1-.38,0,1.85,1.85,0,0,1-.49-.08,2.72,2.72,0,0,1-.88-.41A2.9,2.9,0,0,1,9.44,13.56ZM8,9.36l1.84.49.32-1.18L5,7.3,4.72,8.48,6.55,9l-1.4,5.25,1.46.39Z"/>
</svg>