<svg
    xmlns="http://www.w3.org/2000/svg" viewBox="0 0 917.66 1024">
        <path fill="currentColor" d="M335.75,0h3.94l-3.94,6.89V21.66C366.28,15.75,382,7.88,382,0l21.66,3C440.12,1,472.62,0,503.14,0h3.94c47.26,0,102.4,25.6,167.38,77.78,13.79,22.65,21.66,42.34,25.6,61.05v35.45c-7.88,49.23-21.66,86.64-39.38,111.26q-16.24,13.29-70.9,88.61h-3.93v-6.89l9.84-14.77h-5.91c-84.67,71.88-179.2,127-285.53,164.43-26.59,6.9-53.17,10.83-78.77,10.83C259,567.14,321,619.32,410.58,684.31c8.87,4.92,66,41.35,171.33,111.26,87.63,54.15,192,113.23,314.09,178.21v3.94H881.23C857.6,968.86,845.78,962,845.78,959L838.89,963H832c-3,0-3.94-1-3.94-3.93-8.86,2-15.75,10.83-21.66,25.6,14.77,3.93,21.66,8.86,21.66,13.78-5.91,4.92-9.85,7.88-13.78,7.88l-17.73-3.94v3.94c0,3.94,3,6.89,9.85,6.89V1024h-2.95c-4.93,0-59.08-31.51-160.5-93.54C571.08,894,482.46,837.91,379.08,763.08c-34.46-15.76-97.48-62-190-138.83H179.2c-13.78,20.67-31.51,71.87-54.15,153.6-4.93,18.7-28.56,46.27-70.9,81.72H46.28l-6.9-10.83V844.8c0-4.92,3.94-15.75,10.84-31.51v-3.94H46.28c0,6.9-14.77,17.73-42.34,32.5H0V835Q125.54,462.77,175.26,349.54q85.67-196.44,85.66-224.49c-12.8,0-41.35,15.75-85.66,49.23h-6.89l2.95-6.9v-6.89c-12.8,0-42.34,20.68-88.61,64H78.77v-3.94l46.28-53.17,7.87-10.83v-3.93h-7.87L82.71,188.06c-4.93,0-6.89-2-6.89-5.91,44.3-49.23,98.46-91.57,163.44-125,60.06-15.76,89.6-33.48,89.6-54.16ZM660.68,99.45v3.93a6.73,6.73,0,0,0,6.89,6.9v-3.94C667.57,102.4,665.6,99.45,660.68,99.45ZM243.2,442.09h3c43.33-8.86,65-15.75,65-21.66-3-4.92-3.94-7.88-3.94-10.83,90.58-30.52,151.63-61.05,182.15-92.55,3,0,21.66-19.7,57.11-61.05h3.94v3.94c-4.92,7.88-7.88,13.78-7.88,17.72h3.94C577,254,592.74,228.43,592.74,199.88V178.22c-6.89,0-10.83-3-10.83-7.88q17.72-3,17.72-17.72,0-17.73-70.89-35.45c-38.4-9.85-79.76-13.79-125-13.79-22.64,0-45.29,41.36-67.94,125.05C325.91,238.28,295.38,309.17,243.2,442.09Zm42.34-303.26v3.94c3.94,0,6.89-3.94,10.83-10.83V128C293.42,128,289.48,131.94,285.54,138.83Zm3.94,67.94h3.94c6.89-3,10.83-9.85,10.83-21.66C300.31,185.11,295.38,192,289.48,206.77Zm335.75,13.78v7.88c2.95,0,6.89-3.94,9.85-10.83v-3.94h-3C627.2,214.65,625.23,216.62,625.23,220.55Zm-386,239.27v3.93h6.89c4.93-2.95,8.87-3.93,10.83-3.93v3.93c58.1-10.83,92.56-22.64,104.37-35.44h-3.93C305.23,440.12,265.85,451,239.26,459.82Zm-13.78,35.44h3l65-13.78-3.94-6.9C247.14,479.51,225.48,487.38,225.48,495.26ZM367.26,716.8v6.89C404.68,752.25,427.32,767,435.2,767c-8.86-6.9-13.78-12.8-13.78-17.73Zm104.37,78.77c2,8.86,8.86,13.78,20.68,13.78h3.94v-3.93c-5.91,0-12.8-3-21.67-9.85ZM703,923.57q28.07,25.11,85.67,50.21l3.93-6.89c-29.53-17.72-57.1-32.49-81.72-43.32Zm196.93,57.11h10.83c3.94,1,6.89,3,6.89,6.89-4.92,0-6.89,3.94-6.89,10.83h-7.88l3.94-6.89v-3.94h-6.89Z"/>
</svg>